<svg width="100" height="100" viewBox="0 0 100 100" fill="none" xmlns="http://www.w3.org/2000/svg">
  <!-- Background circle -->
  <circle cx="50" cy="50" r="48" fill="#0f172a" stroke="#3b82f6" stroke-width="2"/>
  
  <!-- Shield shape -->
  <path d="M50 15 L80 30 L80 55 C80 70 65 82 50 88 C35 82 20 70 20 55 L20 30 Z" 
        fill="#1e293b" stroke="#3b82f6" stroke-width="1.5"/>
  
  <!-- Lock body -->
  <rect x="38" y="45" width="24" height="20" rx="3" fill="#3b82f6"/>
  
  <!-- Lock shackle -->
  <path d="M42 45 L42 38 C42 32 48 28 50 28 C52 28 58 32 58 38 L58 45" 
        stroke="#60a5fa" stroke-width="3" fill="none" stroke-linecap="round"/>
  
  <!-- Keyhole -->
  <circle cx="50" cy="53" r="3" fill="#0f172a"/>
  <rect x="49" y="53" width="2" height="6" rx="1" fill="#0f172a"/>
  
  <!-- Tech circuit lines -->
  <path d="M15 50 L25 50" stroke="#3b82f6" stroke-width="1" opacity="0.5"/>
  <path d="M75 50 L85 50" stroke="#3b82f6" stroke-width="1" opacity="0.5"/>
  <path d="M50 10 L50 20" stroke="#3b82f6" stroke-width="1" opacity="0.5"/>
  <path d="M50 80 L50 90" stroke="#3b82f6" stroke-width="1" opacity="0.5"/>
  
  <!-- Circuit dots -->
  <circle cx="15" cy="50" r="2" fill="#60a5fa"/>
  <circle cx="85" cy="50" r="2" fill="#60a5fa"/>
  <circle cx="50" cy="10" r="2" fill="#60a5fa"/>
  <circle cx="50" cy="90" r="2" fill="#60a5fa"/>
</svg>
